<svg width="296" height="254" viewBox="0 0 296 254" fill="none" xmlns="http://www.w3.org/2000/svg">
<path d="M73.1085 12.6118C69.5422 14.4639 66.4217 16.316 65.976 16.7569C65.6193 17.1097 63.3904 18.3444 55.7229 22.4014C54.7422 22.9306 53.7615 23.5479 53.494 23.8125C52.6025 24.6944 47.6989 27.4285 46.1832 27.9576C45.2916 28.2222 44.5784 28.7514 44.5784 29.1924C44.5784 29.6333 43.776 29.9861 42.7952 29.9861C41.8145 29.9861 41.0121 30.3389 41.0121 30.7799C41.0121 31.2208 40.2989 31.75 39.4964 32.0146C37.8916 32.5437 32.988 35.2778 32.0964 36.1597C31.829 36.4243 30.8483 37.0417 29.8675 37.5708C22.0217 41.716 19.9711 42.8625 19.6145 43.3035C19.347 43.5681 18.4555 44.009 17.6531 44.3618C15.4242 45.1556 15.6025 47.625 17.8314 47.625C18.8121 47.625 19.6145 47.9778 19.6145 48.4187C19.6145 48.8597 20.3278 49.3889 21.2193 49.6535C23.2699 50.359 27.9952 53.1812 28.3519 53.975C28.5302 54.416 29.2434 54.6806 29.9567 54.6806C30.6699 54.6806 32.0964 55.4743 33.1663 56.4444C34.2362 57.4146 35.6627 58.2083 36.2868 58.2083C36.9109 58.2083 37.4458 58.5611 37.4458 59.0903C37.4458 59.5312 38.2483 59.9722 39.229 59.9722C40.2097 59.9722 41.0121 60.325 41.0121 60.766C41.0121 61.2069 41.7254 61.7361 42.6169 62.0007C44.1326 62.5299 49.0362 65.2639 49.9278 66.1458C50.2844 66.4986 52.5133 67.7333 60.1808 71.7903C61.1615 72.3194 62.1422 72.9368 62.4097 73.2014C62.9446 73.7306 70.0772 77.6111 72.841 78.934C74.0001 79.375 74.8916 80.0806 74.8916 80.4333C74.8916 81.2271 81.4892 77.5229 81.8458 76.5528C82.0242 76.2 82.9157 75.8472 83.8073 75.8472C84.6989 75.8472 85.5904 75.5826 85.7687 75.1417C86.1254 74.3479 90.8507 71.5257 92.9904 70.8201C93.7928 70.5556 94.5061 70.0264 94.5061 69.5854C94.5061 69.1444 95.3085 68.7917 96.2892 68.7917C97.2699 68.7917 98.0723 68.4389 98.0723 67.9979C98.0723 67.5569 98.7856 67.0278 99.6772 66.7632C101.193 66.234 106.096 63.5 106.988 62.6181C107.88 61.7361 112.783 59.0021 114.388 58.4729C115.19 58.2083 115.904 57.6792 115.904 57.2382C115.904 56.7972 116.706 56.4444 117.598 56.4444C118.578 56.4444 119.47 56.1799 119.648 55.7389C120.005 54.9451 124.73 52.1229 126.87 51.4174C127.672 51.1528 128.386 50.6236 128.386 50.1826C128.386 49.7417 129.188 49.3889 130.169 49.3889C131.149 49.3889 131.952 49.0361 131.952 48.5951C131.952 48.1542 132.843 47.5368 134.002 47.2722C135.964 46.7431 135.964 46.6549 133.289 44.5382C131.863 43.3035 130.169 42.3333 129.545 42.3333C129.01 42.3333 128.386 42.0687 128.207 41.6278C127.851 40.834 123.125 38.0118 121.075 37.3062C120.183 37.0417 119.47 36.5125 119.47 36.0715C119.47 35.6306 118.668 35.2778 117.687 35.2778C116.706 35.2778 115.904 34.925 115.904 34.484C115.904 34.0431 115.19 33.5139 114.388 33.2493C112.783 32.7201 107.88 29.9861 106.988 29.1042C106.631 28.7514 104.402 27.5167 96.735 23.4597C95.7543 22.9306 94.7735 22.3132 94.5061 22.0486C93.6145 21.1667 88.7109 18.4326 87.1952 17.9035C86.3037 17.6389 85.5904 17.1097 85.5904 16.6687C85.5904 16.2278 84.788 15.875 83.8964 15.875C82.9157 15.875 82.0242 15.6104 81.8458 15.1694C81.5784 14.6403 76.3181 11.4653 75.6049 11.4653C75.5157 11.4653 74.3567 11.9944 73.1085 12.6118Z" fill="#F6F7FC"/>
<path d="M217.096 13.0528C215.67 13.8465 214.333 14.8167 214.154 15.1694C213.976 15.6104 213.084 15.875 212.104 15.875C211.212 15.875 210.41 16.2278 210.41 16.6688C210.41 17.1097 209.696 17.6389 208.894 17.9035C207.289 18.4326 202.386 21.1667 201.494 22.0486C201.227 22.3132 200.246 22.9306 199.265 23.4597C191.598 27.5167 189.369 28.7514 189.012 29.1042C188.745 29.3688 187.764 29.9861 186.783 30.5153C182.504 32.8083 180.542 33.9549 180.096 34.3958C179.829 34.6604 178.046 35.6306 176.084 36.6889C171.448 39.0701 168.149 40.9222 167.615 41.4514C167.347 41.716 166.01 42.5979 164.494 43.3917C163.068 44.1854 161.819 45.3319 161.819 45.8611C161.819 46.3903 163.068 47.5368 164.494 48.3306C166.01 49.1243 167.347 50.0063 167.615 50.2708C168.506 51.1528 173.41 53.8868 175.015 54.416C175.817 54.6806 176.53 55.2097 176.53 55.6507C176.53 56.0917 177.333 56.4444 178.313 56.4444C179.294 56.4444 180.096 56.709 180.096 57.15C180.096 57.5028 181.969 58.7375 184.376 59.9722C186.694 61.1188 188.745 62.3535 189.012 62.6181C189.815 63.5 194.807 66.234 196.412 66.7632C197.215 67.0278 197.928 67.5569 197.928 67.9979C197.928 68.4389 198.73 68.7917 199.622 68.7917C200.602 68.7917 201.494 69.0563 201.672 69.409C202.029 70.291 206.754 73.1132 208.894 73.8188C209.696 74.0833 210.41 74.6125 210.41 75.0535C210.41 75.4944 210.766 75.8472 211.301 75.8472C211.747 75.8472 214.154 76.9938 216.651 78.4931C219.058 79.9042 221.108 80.7861 221.108 80.4333C221.108 80.0806 222 79.375 223.159 78.934C225.923 77.6111 233.055 73.7306 233.59 73.2014C234.482 72.3194 239.386 69.5854 240.99 69.0563C241.793 68.7917 242.506 68.2625 242.506 67.8215C242.506 67.3806 243.309 67.0278 244.2 67.0278C245.181 67.0278 246.072 66.7632 246.251 66.3222C246.607 65.5285 251.333 62.7063 253.472 62.0007C254.275 61.7361 254.988 61.2069 254.988 60.766C254.988 60.325 255.79 59.9722 256.771 59.9722C257.752 59.9722 258.554 59.6194 258.554 59.1785C258.554 58.7375 259.802 57.9438 261.229 57.3264C262.745 56.709 263.904 55.9153 263.904 55.4743C263.904 55.0333 264.706 54.6806 265.598 54.6806C266.578 54.6806 267.47 54.416 267.648 53.975C268.005 53.1813 272.73 50.359 274.87 49.6535C275.672 49.3889 276.386 48.8597 276.386 48.4188C276.386 47.9778 277.188 47.625 278.169 47.625C280.398 47.625 280.576 45.1556 278.436 44.3618C277.545 44.009 276.653 43.5681 276.386 43.3035C276.029 42.8625 273.978 41.716 266.133 37.5708C265.152 37.0417 264.171 36.4243 263.904 36.1597C263.636 35.8951 261.586 34.6604 259.268 33.5139C256.86 32.2792 254.988 31.0444 254.988 30.6917C254.988 30.2507 254.186 29.9861 253.205 29.9861C252.224 29.9861 251.422 29.6333 251.422 29.1924C251.422 28.7514 250.709 28.2222 249.906 27.9576C248.301 27.4285 243.398 24.6944 242.506 23.8125C241.971 23.2833 234.839 19.4028 232.075 18.0799C230.916 17.6389 230.024 16.9333 230.024 16.4924C230.024 16.1396 229.578 15.875 229.043 15.875C228.508 15.875 226.993 15.1694 225.745 14.1993C222 11.6417 220.039 11.3771 217.096 13.0528Z" fill="#F6F7FC"/>
<path d="M146.217 53.7986C146.217 54.2396 145.414 54.6806 144.434 54.6806C143.453 54.6806 142.651 55.0333 142.651 55.4743C142.651 55.9153 141.937 56.4444 141.135 56.709C138.995 57.4146 134.27 60.2368 133.913 61.0306C133.735 61.4715 132.843 61.7361 131.863 61.7361C130.971 61.7361 130.169 62.0889 130.169 62.5299C130.169 62.9708 129.455 63.5 128.653 63.7646C127.048 64.2937 122.145 67.0278 121.253 67.9097C120.986 68.1743 119.202 69.1444 117.241 70.2028C112.605 72.584 109.306 74.4361 108.771 74.9653C108.504 75.2299 106.721 76.2 104.759 77.2583C100.034 79.6396 96.8241 81.4917 96.2892 82.0208C96.0217 82.2854 93.9711 83.4319 91.6531 84.5785C89.2458 85.725 87.3735 86.9597 87.3735 87.3125C87.3735 87.5771 89.335 88.8118 91.8314 90.0465C94.2386 91.1931 96.2892 92.4278 96.2892 92.7806C96.2892 93.2215 97.0916 93.4861 98.0723 93.4861C99.0531 93.4861 99.8555 93.7507 99.8555 94.1917C99.8555 94.5444 101.728 95.7792 104.135 97.0139C106.453 98.1604 108.504 99.3951 108.771 99.6597C109.306 100.189 112.516 102.041 117.241 104.422C119.202 105.481 120.986 106.451 121.253 106.715C121.699 107.156 123.66 108.303 127.94 110.596C128.921 111.125 129.901 111.742 130.169 112.007C130.436 112.272 131.417 112.889 132.398 113.418C140.065 117.475 142.294 118.71 142.651 119.062C142.918 119.327 144.166 120.033 145.593 120.738C147.643 121.797 148.357 121.797 150.496 120.738C151.834 120.033 153.082 119.327 153.349 119.062C153.706 118.71 155.935 117.475 163.602 113.418C164.583 112.889 165.564 112.272 165.831 112.007C166.099 111.742 167.169 111.037 168.328 110.419C169.398 109.89 171.181 108.832 172.34 108.215C173.41 107.685 174.48 106.98 174.747 106.715C175.014 106.451 176.798 105.481 178.759 104.422C183.395 102.041 186.694 100.189 187.229 99.6597C187.586 99.3069 189.814 98.0722 197.482 94.0153C198.463 93.4861 199.443 92.8687 199.711 92.6042C199.978 92.3396 202.029 91.1049 204.436 89.9583C206.754 88.7236 208.627 87.4889 208.627 87.1361C208.627 86.8715 207.467 86.0778 205.952 85.3722C204.525 84.7549 203.277 83.9611 203.277 83.6083C203.277 83.1674 202.475 82.9028 201.583 82.9028C200.602 82.9028 199.711 82.6382 199.533 82.1972C199.176 81.4035 194.451 78.5812 192.4 77.8757C191.508 77.6111 190.795 77.0819 190.795 76.641C190.795 76.2 189.993 75.8472 189.012 75.8472C188.031 75.8472 187.229 75.5826 187.229 75.1417C187.229 74.7889 186.337 74.0833 185.178 73.5542C181.434 71.7021 175.193 68.3507 174.747 67.9097C174.212 67.3806 170.913 65.5285 166.277 63.1472C164.316 62.0889 162.533 61.1187 162.265 60.8542C161.374 59.9722 156.47 57.2382 154.954 56.709C154.063 56.4444 153.349 55.9153 153.349 55.4743C153.349 55.0333 152.547 54.6806 151.566 54.6806C150.586 54.6806 149.783 54.2396 149.783 53.7986C149.783 53.2694 148.981 52.9167 148 52.9167C147.019 52.9167 146.217 53.2694 146.217 53.7986Z" fill="#F6F7FC"/>
<path d="M8.91577 90.7521V125.148L11.5013 126.912C12.9278 127.97 14.5326 128.764 15.0676 128.764C15.6025 128.764 16.0483 129.028 16.0483 129.381C16.0483 129.822 16.9399 130.528 18.0989 130.969C21.2194 132.468 28.0844 136.172 28.5302 136.79C28.7977 137.054 30.7591 138.201 32.9881 139.435C35.217 140.582 37.1784 141.728 37.4459 141.993C37.8025 142.346 40.0314 143.581 47.6989 147.638C48.6796 148.167 49.6603 148.784 49.9278 149.049C50.2844 149.401 52.5134 150.636 60.1808 154.693C61.1615 155.222 62.1423 155.84 62.4097 156.104C63.123 156.81 68.3832 159.632 69.0073 159.632C69.2748 159.632 69.5423 144.022 69.5423 124.972V90.2229L67.135 88.9882C65.7085 88.2826 64.4603 87.5771 64.1929 87.3125C63.8362 86.9597 61.6073 85.725 53.9399 81.6681C52.9591 81.1389 51.9784 80.5215 51.7109 80.257C51.176 79.7278 47.8772 77.8757 43.2411 75.4945C41.2796 74.4361 39.4965 73.466 39.229 73.2014C38.3375 72.3195 33.4338 69.5854 31.9182 69.0563C31.0266 68.7917 30.3134 68.2625 30.3134 67.8215C30.3134 67.3806 29.5109 67.0278 28.5302 67.0278C27.5495 67.0278 26.7471 66.7632 26.7471 66.3222C26.7471 65.9695 24.8748 64.7347 22.5567 63.5C20.1495 62.3535 18.0989 61.1188 17.8314 60.8542C17.2073 60.1486 10.0748 56.4444 9.45071 56.4444C9.18324 56.4444 8.91577 71.8785 8.91577 90.7521Z" fill="#F6F7FC"/>
<path d="M282.181 58.4729C280.219 59.5312 278.436 60.5896 278.169 60.8542C277.812 61.2069 275.583 62.4417 267.916 66.4986C266.935 67.0278 265.954 67.6451 265.687 67.9097C264.795 68.7917 259.892 71.5257 258.376 72.0549C257.485 72.3194 256.771 72.8486 256.771 73.2896C256.771 73.7306 255.969 74.0833 254.988 74.0833C254.007 74.0833 253.205 74.4361 253.205 74.8771C253.205 75.3181 252.492 75.8472 251.689 76.1118C250.085 76.641 245.181 79.375 244.289 80.2569C244.022 80.5215 243.041 81.1389 242.06 81.6681C234.393 85.725 232.164 86.9597 231.807 87.3125C231.54 87.5771 230.292 88.2826 228.954 88.9882L226.458 90.2229V124.354C226.458 143.14 226.725 158.75 226.993 159.015C227.528 159.544 232.253 157.427 233.591 156.104C233.947 155.751 236.176 154.517 243.844 150.46C244.824 149.931 245.805 149.313 246.072 149.049C246.607 148.519 253.74 144.639 256.504 143.316C257.663 142.875 258.554 142.169 258.554 141.728C258.554 141.376 258.911 141.111 259.446 141.111C259.892 141.111 264.35 138.73 269.253 135.819C274.157 132.909 278.615 130.528 279.06 130.528C279.595 130.528 279.952 130.087 279.952 129.646C279.952 129.117 280.398 128.764 280.933 128.764C281.468 128.764 283.072 127.97 284.499 126.912L287.085 125.148V90.7521C287.085 71.8785 286.817 56.4444 286.46 56.4444C286.015 56.4444 284.142 57.3264 282.181 58.4729Z" fill="#F6F7FC"/>
<path d="M81.1326 132.027C81.1326 163.777 81.2217 166.423 82.7374 167.569C84.0747 168.716 86.482 170.127 94.0603 174.096C95.041 174.625 96.0217 175.242 96.2892 175.507C96.5567 175.772 97.7157 176.477 98.8747 177.094C104.492 180.269 106.81 181.592 110.554 183.797C112.783 185.12 115.28 186.355 116.171 186.708C116.974 186.972 117.687 187.501 117.687 187.942C117.687 188.383 118.489 188.736 119.381 188.736C120.361 188.736 121.253 189.001 121.431 189.353C121.788 190.235 126.513 193.058 128.653 193.763C129.455 194.028 130.169 194.557 130.169 194.998C130.169 195.439 130.525 195.792 131.06 195.792C131.506 195.792 133.913 196.938 136.41 198.438C138.906 199.849 141.313 201.083 141.759 201.083C143.186 201.083 142.918 132.733 141.581 131.674C140.957 131.145 138.639 129.822 136.41 128.676C134.181 127.529 132.219 126.383 131.952 126.118C131.684 125.853 130.614 125.148 129.545 124.531C128.386 124.001 126.602 122.943 125.533 122.326C124.374 121.797 123.304 121.091 123.036 120.826C122.769 120.562 121.788 119.944 120.807 119.415C113.14 115.358 110.911 114.124 110.554 113.771C110.198 113.418 107.969 112.183 100.301 108.126C99.3205 107.597 98.3398 106.98 98.0723 106.715C97.1808 105.833 92.2771 103.099 90.7615 102.57C89.8699 102.306 89.1567 101.776 89.1567 101.335C89.1567 100.894 88.3543 100.542 87.4627 100.542C86.482 100.542 85.5904 100.189 85.4121 99.7479C85.3229 99.3951 84.2531 98.6896 83.1832 98.425L81.1326 97.8076V132.027Z" fill="#F6F7FC"/>
<path d="M212.015 98.5132C211.123 98.6896 210.41 99.307 210.41 99.7479C210.41 100.189 209.607 100.542 208.627 100.542C207.646 100.542 206.844 100.894 206.844 101.335C206.844 101.776 206.13 102.306 205.328 102.57C203.723 103.099 198.819 105.833 197.928 106.715C197.66 106.98 196.68 107.597 195.699 108.126C188.032 112.183 185.803 113.418 185.446 113.771C185.089 114.124 182.86 115.358 175.193 119.415C174.212 119.944 173.232 120.562 172.964 120.826C172.072 121.708 167.169 124.442 165.653 124.972C164.762 125.236 164.048 125.765 164.048 126.206C164.048 126.647 163.424 127 162.711 127C161.909 127 160.839 127.441 160.215 127.97C159.591 128.411 157.807 129.646 156.292 130.528L153.35 132.292V166.688C153.35 187.942 153.706 201.083 154.241 201.083C154.687 201.083 157.094 199.937 159.591 198.438C162.087 197.026 164.494 195.792 164.94 195.792C165.297 195.792 165.832 195.527 166.01 195.086C166.366 194.292 171.092 191.47 173.232 190.765C174.034 190.5 174.747 189.971 174.747 189.53C174.747 189.089 175.55 188.736 176.53 188.736C177.511 188.736 178.313 188.472 178.313 188.031C178.313 187.678 179.205 186.972 180.364 186.443C184.554 184.415 190.35 181.24 190.795 180.71C191.063 180.446 193.024 179.299 195.253 178.065C197.482 176.918 199.444 175.772 199.711 175.507C199.979 175.242 201.94 174.096 204.169 172.949C210.766 169.422 211.569 168.981 213.263 167.569C214.779 166.335 214.868 164.13 214.868 132.115C214.868 113.242 214.6 97.984 214.244 97.984C213.798 98.0722 212.817 98.2486 212.015 98.5132Z" fill="#F6F7FC"/>
<path d="M8.91577 173.567V208.051L11.5013 209.815C12.9278 210.873 14.5326 211.667 15.0676 211.667C15.6025 211.667 16.0483 211.931 16.0483 212.284C16.0483 212.725 16.9399 213.431 18.0989 213.872C20.8628 215.194 27.9953 219.075 28.5302 219.604C29.0652 220.133 32.364 221.985 37.0001 224.367C38.9615 225.425 40.7447 226.395 41.0122 226.66C41.2796 226.924 42.4387 227.63 43.5977 228.247C49.2146 231.422 51.5326 232.745 55.2772 234.95C57.5061 236.273 60.0025 237.508 60.8941 237.86C61.6965 238.125 62.4097 238.654 62.4097 239.095C62.4097 239.536 63.0338 239.889 63.8362 239.889C64.5495 239.889 65.7977 240.506 66.5109 241.212C67.3134 241.917 68.2941 242.535 68.7399 242.535C69.1856 242.535 69.5423 228.6 69.5423 207.874V173.126L67.135 171.891C65.7085 171.185 64.4603 170.48 64.1929 170.215C63.8362 169.863 61.6073 168.628 53.9399 164.571C52.9591 164.042 51.9784 163.424 51.7109 163.16C51.4435 162.895 49.3929 161.66 47.0748 160.514C44.6676 159.279 42.7953 158.044 42.7953 157.692C42.7953 157.251 41.9929 156.986 41.0122 156.986C40.0314 156.986 39.229 156.633 39.229 156.192C39.229 155.751 38.5158 155.222 37.7134 154.958C36.1085 154.428 31.2049 151.694 30.3134 150.813C29.8676 150.372 23.6266 147.02 19.882 145.168C18.723 144.639 17.8314 143.933 17.8314 143.492C17.8314 143.14 17.029 142.875 16.0483 142.875C15.0676 142.875 14.2652 142.522 14.2652 142.081C14.2652 141.64 13.5519 141.111 12.7495 140.758C11.8579 140.494 10.6097 139.965 10.0748 139.7C9.18324 139.347 8.91577 146.403 8.91577 173.567Z" fill="#F6F7FC"/>
<path d="M283.786 140.406C282.627 140.935 281.735 141.728 281.735 142.169C281.735 142.522 280.933 142.875 279.952 142.875C278.971 142.875 278.169 143.228 278.169 143.669C278.169 144.11 277.456 144.639 276.653 144.903C274.513 145.609 269.788 148.431 269.431 149.225C269.253 149.666 268.362 149.931 267.381 149.931C266.489 149.931 265.687 150.283 265.687 150.724C265.687 151.165 264.974 151.694 264.171 151.959C262.031 152.665 257.306 155.487 256.95 156.281C256.771 156.722 255.88 156.986 254.899 156.986C254.007 156.986 253.205 157.251 253.205 157.692C253.205 158.044 251.333 159.279 249.015 160.514C246.607 161.66 244.557 162.895 244.289 163.16C244.022 163.424 243.041 164.042 242.06 164.571C234.393 168.628 232.164 169.862 231.807 170.215C231.54 170.48 230.292 171.185 228.954 171.891L226.458 173.126V207.786C226.458 241.917 226.458 242.358 228.241 241.917C229.222 241.653 230.024 241.124 230.024 240.683C230.024 240.242 230.827 239.889 231.807 239.889C232.788 239.889 233.591 239.624 233.591 239.183C233.591 238.831 234.482 238.125 235.641 237.596C239.386 235.744 245.627 232.392 246.072 231.951C246.34 231.687 247.41 230.981 248.569 230.364C249.639 229.835 251.422 228.776 252.581 228.159C253.651 227.63 254.721 226.924 254.988 226.66C255.256 226.395 257.039 225.425 259 224.367C263.725 221.985 266.935 220.133 267.47 219.604C267.738 219.34 269.788 218.105 272.195 216.958C274.513 215.724 276.386 214.489 276.386 214.136C276.386 213.695 277.188 213.431 278.169 213.431C279.15 213.431 279.952 212.99 279.952 212.549C279.952 212.019 280.398 211.667 280.933 211.667C281.468 211.667 283.072 210.873 284.499 209.815L287.085 208.051V173.655C287.085 154.781 286.817 139.347 286.46 139.435C286.015 139.435 284.856 139.876 283.786 140.406Z" fill="#F6F7FC"/>
<path d="M81.6676 181.504C81.4892 181.857 81.3109 195.527 81.2218 211.843L81.0435 241.653H83.2724C84.4314 241.653 85.5904 241.388 85.7688 240.947C86.1254 240.153 90.8507 237.331 92.9904 236.626C93.7929 236.361 94.5061 235.832 94.5061 235.391C94.5061 234.95 95.3085 234.597 96.2892 234.597C97.27 234.597 98.0724 234.244 98.0724 233.803C98.0724 233.363 98.7856 232.833 99.6772 232.569C101.193 232.04 106.096 229.306 106.988 228.424C107.256 228.159 109.039 227.189 111 226.131C115.725 223.749 118.935 221.897 119.47 221.368C119.737 221.103 121.788 219.869 124.195 218.722C126.513 217.488 128.386 216.253 128.386 215.9C128.386 215.459 129.188 215.194 130.169 215.194C131.149 215.194 131.952 214.842 131.952 214.401C131.952 213.96 132.754 213.431 133.735 213.166C135.964 212.637 136.053 210.961 134.002 210.167C133.111 209.815 132.219 209.374 131.952 209.109C131.239 208.227 126.246 205.405 124.641 204.876C123.749 204.611 123.036 204.082 123.036 203.641C123.036 203.2 122.234 202.847 121.253 202.847C120.272 202.847 119.47 202.583 119.47 202.142C119.47 201.789 117.598 200.554 115.28 199.319C112.872 198.173 110.822 196.938 110.554 196.674C110.198 196.321 108.058 195.086 100.301 191.029C99.3206 190.5 98.3398 189.883 98.0724 189.618C97.7157 189.265 95.4868 188.031 87.8194 183.974C86.8386 183.444 85.8579 182.739 85.5904 182.474C84.788 181.592 82.1133 180.887 81.6676 181.504Z" fill="#F6F7FC"/>
<path d="M212.193 181.416C211.48 181.681 210.677 182.21 210.41 182.474C210.142 182.739 209.161 183.444 208.181 183.974C200.513 188.031 198.284 189.265 197.928 189.618C197.66 189.883 196.68 190.5 195.699 191.029C187.942 195.086 185.802 196.321 185.446 196.674C185.178 196.938 183.128 198.173 180.81 199.319C178.402 200.554 176.53 201.789 176.53 202.142C176.53 202.583 175.728 202.847 174.747 202.847C173.766 202.847 172.964 203.2 172.964 203.641C172.964 204.082 172.251 204.611 171.448 204.876C169.754 205.405 164.761 208.227 164.048 209.109C163.781 209.374 162.889 209.815 162.087 210.167C159.947 210.961 160.036 212.637 162.265 213.166C163.246 213.431 164.048 213.96 164.048 214.401C164.048 214.842 164.851 215.194 165.831 215.194C166.812 215.194 167.614 215.459 167.614 215.9C167.614 216.253 169.487 217.488 171.894 218.722C174.212 219.869 176.263 221.103 176.53 221.368C177.065 221.897 180.275 223.749 185 226.131C186.961 227.189 188.745 228.159 189.012 228.424C189.904 229.306 194.807 232.04 196.412 232.569C197.214 232.833 197.928 233.363 197.928 233.803C197.928 234.244 198.73 234.597 199.711 234.597C200.692 234.597 201.494 234.862 201.494 235.303C201.494 235.656 203.366 236.89 205.774 238.125C208.092 239.272 210.142 240.506 210.41 240.859C210.677 241.124 211.747 241.653 212.906 242.006L214.867 242.623V211.755C214.867 194.733 214.6 180.799 214.243 180.887C213.798 180.887 212.906 181.151 212.193 181.416Z" fill="#F6F7FC"/>
</svg>
